<?xml version="1.0" standalone="no"?>
<!DOCTYPE svg PUBLIC "-//W3C//DTD SVG 20010904//EN"
 "http://www.w3.org/TR/2001/REC-SVG-20010904/DTD/svg10.dtd">
<svg version="1.0" xmlns="http://www.w3.org/2000/svg"
 width="584.000000pt" height="584.000000pt" viewBox="0 0 584.000000 584.000000"
 preserveAspectRatio="xMidYMid meet">
<metadata>
Created by potrace 1.11, written by Peter Selinger 2001-2013
</metadata>
<g transform="translate(0.000000,584.000000) scale(0.100000,-0.100000)"
fill="#000000" stroke="none">
<path d="M2880 5833 c-8 -3 -27 -14 -41 -24 -14 -10 -29 -16 -33 -12 -3 3 -6
1 -6 -5 0 -7 -7 -12 -15 -12 -8 0 -15 -4 -15 -10 0 -5 -6 -10 -14 -10 -7 0
-19 -7 -26 -15 -7 -9 -15 -14 -17 -11 -2 2 -45 -20 -94 -50 -49 -30 -94 -54
-99 -54 -5 0 -13 -7 -18 -16 -5 -9 -13 -16 -18 -16 -23 -2 -44 -11 -44 -19 0
-5 -3 -8 -7 -7 -7 2 -86 -41 -206 -113 -26 -16 -52 -29 -57 -29 -6 0 -10 -5
-10 -11 0 -5 -4 -7 -10 -4 -5 3 -10 1 -10 -5 0 -6 -4 -9 -9 -6 -5 4 -11 3 -13
-2 -1 -4 -59 -39 -128 -79 -69 -39 -141 -80 -160 -91 -119 -69 -224 -127 -227
-124 -2 1 -11 -5 -20 -14 -25 -22 -133 -84 -133 -76 0 4 -4 3 -8 -3 -8 -12
-34 -28 -82 -52 -19 -9 -37 -20 -40 -23 -3 -3 -16 -11 -30 -18 -44 -21 -155
-85 -160 -91 -5 -6 -75 -45 -140 -78 -19 -10 -39 -22 -45 -26 -30 -23 -125
-74 -129 -69 -3 3 -6 0 -6 -6 0 -7 -7 -12 -15 -12 -7 0 -19 -8 -24 -17 -6 -10
-11 -14 -11 -9 0 4 -11 1 -25 -8 -14 -9 -25 -13 -25 -9 0 5 -5 0 -11 -9 -5
-10 -14 -18 -19 -18 -5 0 -33 -14 -62 -31 -86 -51 -121 -71 -153 -87 -16 -9
-32 -18 -35 -21 -3 -3 -18 -13 -35 -21 l-30 -16 -3 -1470 -2 -1470 112 -64
c62 -35 121 -70 131 -78 9 -8 17 -12 17 -8 0 4 13 -2 29 -13 16 -12 34 -21 40
-21 6 0 11 -4 11 -10 0 -5 7 -10 15 -10 8 0 15 -5 15 -11 0 -5 5 -7 10 -4 5 3
10 2 10 -2 0 -5 12 -14 27 -20 16 -7 47 -23 71 -37 23 -15 61 -37 85 -51 23
-14 50 -28 60 -32 9 -3 17 -10 17 -15 0 -5 4 -7 9 -3 5 3 12 1 16 -4 3 -5 18
-16 33 -24 15 -7 45 -24 67 -37 22 -13 52 -30 67 -37 16 -8 28 -19 28 -24 0
-6 4 -8 9 -5 5 3 25 -5 45 -19 20 -13 36 -21 36 -17 0 4 4 2 8 -4 4 -6 27 -21
52 -35 25 -13 47 -26 50 -29 3 -3 16 -11 30 -18 14 -7 48 -26 75 -42 28 -17
69 -40 92 -51 24 -12 43 -26 43 -32 0 -6 3 -7 7 -4 3 4 12 2 20 -4 14 -12 82
-52 123 -72 14 -6 31 -17 38 -24 8 -7 18 -11 23 -8 5 4 9 2 9 -3 0 -5 14 -15
30 -22 17 -7 30 -17 30 -23 0 -6 3 -8 6 -5 3 4 21 -4 40 -17 19 -13 55 -33 79
-45 25 -12 45 -27 45 -33 0 -5 3 -8 6 -4 5 4 68 -29 194 -103 133 -78 307
-176 317 -178 7 -2 13 -8 13 -13 0 -5 4 -9 9 -9 5 0 48 -23 96 -50 48 -28 90
-50 95 -50 5 0 10 -5 12 -12 3 -7 27 -13 56 -14 29 -2 50 1 47 6 -4 7 14 16
39 18 5 0 12 5 15 10 8 12 74 47 84 44 4 -1 7 2 7 7 0 4 20 19 45 32 25 13 45
27 45 30 0 3 6 6 13 6 7 0 38 16 70 36 31 20 57 33 57 29 0 -4 4 -2 8 3 4 6
54 38 112 70 58 33 114 65 125 72 11 6 36 20 55 29 19 10 37 21 40 24 3 3 16
11 30 18 14 7 41 22 60 33 19 12 53 31 75 42 22 12 42 25 45 28 3 4 33 22 68
40 77 42 100 54 181 102 35 21 68 39 74 40 6 1 19 10 29 19 10 10 25 18 33 18
8 0 15 5 15 10 0 6 4 10 9 10 5 0 49 23 97 51 48 27 92 51 98 52 5 1 18 10 28
19 10 10 25 18 33 18 8 0 15 4 15 8 0 5 23 19 50 31 28 12 50 28 50 33 0 6 3
8 6 5 4 -4 19 2 34 13 16 11 32 20 38 20 5 0 15 7 22 15 7 8 16 12 21 9 5 -3
9 0 9 6 0 6 4 9 9 6 5 -4 11 -2 13 2 4 11 143 92 157 92 6 0 11 5 11 10 0 6 7
10 15 10 8 0 15 5 15 12 0 6 3 9 6 5 4 -3 23 5 43 18 19 14 41 25 48 25 7 0
13 4 13 9 0 5 15 15 33 22 17 7 38 19 45 26 8 7 17 11 22 8 5 -3 10 -2 12 3 4
11 81 57 91 54 4 -1 7 3 7 8 0 6 5 10 10 10 6 0 27 11 48 24 20 12 41 24 45
24 4 1 14 8 22 16 13 13 15 206 15 1476 0 1524 1 1474 -40 1493 -8 4 -37 20
-65 37 -27 17 -66 38 -85 48 -19 9 -37 20 -40 23 -3 3 -30 19 -60 36 -30 16
-75 42 -100 57 -25 15 -53 29 -62 33 -10 3 -18 10 -18 15 0 5 -4 7 -9 4 -5 -3
-14 1 -21 9 -7 8 -18 15 -25 15 -8 0 -15 3 -17 8 -1 4 -21 16 -43 28 -86 45
-140 77 -143 86 -2 4 -12 8 -23 8 -10 0 -19 5 -19 11 0 5 -4 7 -10 4 -5 -3
-10 -1 -10 4 0 6 -7 11 -15 11 -8 0 -15 3 -15 8 0 7 -62 38 -67 34 -2 -1 -12
7 -23 18 -11 11 -27 20 -35 20 -8 0 -15 4 -15 8 0 5 -16 14 -35 22 -19 8 -35
17 -35 22 0 4 -7 8 -15 8 -8 0 -15 4 -15 10 0 5 -7 7 -15 4 -8 -4 -15 -2 -15
3 0 4 -17 17 -37 28 -21 11 -40 22 -43 25 -3 3 -18 12 -35 20 -16 7 -45 25
-62 38 -18 12 -33 20 -33 17 0 -4 -13 3 -29 14 -16 12 -34 21 -40 21 -6 0 -11
3 -11 8 0 4 -10 12 -23 17 -43 21 -112 60 -118 68 -3 5 -9 7 -12 5 -4 -1 -16
5 -27 15 -11 9 -27 17 -35 17 -8 0 -15 3 -15 8 0 4 -26 20 -58 37 -31 16 -60
34 -64 40 -5 6 -8 6 -8 0 0 -6 -3 -6 -8 1 -4 6 -32 24 -62 40 -30 16 -57 31
-60 35 -3 3 -19 12 -37 19 -17 8 -29 18 -26 24 3 5 1 6 -4 3 -6 -4 -22 3 -37
14 -14 11 -26 18 -26 15 0 -5 -44 20 -125 71 -11 7 -37 21 -57 30 -21 10 -38
21 -38 25 0 5 -5 8 -11 8 -6 0 -24 9 -40 21 -16 11 -29 17 -29 12 0 -4 -4 -3
-8 3 -4 6 -29 24 -57 39 -27 14 -77 42 -110 61 -57 32 -92 39 -125 27z m84
-305 c22 -13 43 -26 44 -30 2 -5 7 -8 12 -8 4 0 67 -34 139 -75 71 -41 135
-75 141 -75 5 0 10 -4 10 -8 0 -5 18 -17 40 -27 22 -10 40 -22 40 -27 0 -5 5
-6 10 -3 6 3 10 1 10 -6 0 -7 3 -9 6 -6 4 4 19 -2 34 -13 16 -11 33 -20 39
-20 6 0 11 -4 11 -10 0 -5 4 -10 8 -10 5 0 64 -32 133 -71 68 -40 149 -86 179
-102 30 -17 57 -34 58 -39 2 -4 9 -8 16 -8 7 0 29 -11 49 -24 19 -13 38 -22
41 -18 3 3 6 0 6 -6 0 -7 7 -12 15 -12 8 0 15 -4 15 -10 0 -5 9 -10 20 -10 11
0 20 -4 20 -10 0 -5 6 -10 14 -10 7 0 19 -7 26 -15 7 -8 16 -12 21 -9 5 3 9 0
9 -5 0 -6 7 -11 15 -11 8 0 15 -4 15 -10 0 -5 3 -9 8 -8 4 1 29 -11 57 -27 99
-59 110 -65 138 -76 15 -6 27 -15 27 -20 0 -5 5 -9 10 -9 6 0 55 -26 109 -57
130 -76 165 -95 170 -93 2 1 7 -2 10 -7 3 -4 23 -17 44 -28 20 -11 37 -23 37
-27 0 -5 3 -7 8 -6 11 3 82 -35 82 -44 0 -4 5 -8 11 -8 6 0 23 -9 39 -20 15
-11 30 -17 34 -13 3 3 6 2 6 -4 0 -6 12 -16 28 -22 15 -6 36 -16 47 -23 11 -7
31 -19 44 -26 23 -14 22 -14 -40 -52 -34 -22 -67 -36 -72 -33 -6 3 -7 1 -3 -5
6 -11 -6 -16 -26 -13 -5 0 -8 -2 -8 -6 0 -5 -26 -21 -58 -38 -31 -16 -59 -32
-62 -35 -3 -3 -16 -11 -30 -18 -36 -17 -64 -35 -72 -47 -4 -5 -8 -6 -8 -2 0 4
-24 -8 -54 -27 -30 -19 -57 -32 -60 -29 -3 4 -6 2 -6 -4 0 -5 -12 -15 -27 -22
-14 -7 -58 -31 -97 -54 -39 -23 -74 -42 -78 -42 -4 0 -13 -6 -19 -12 -7 -7
-19 -13 -26 -13 -7 0 -13 -4 -13 -10 0 -5 -5 -10 -11 -10 -6 0 -41 -17 -77
-39 -82 -48 -139 -80 -171 -97 -28 -15 -36 -43 -16 -51 8 -2 19 -20 25 -39 6
-19 16 -34 21 -34 6 0 7 -4 4 -10 -3 -5 -1 -10 5 -10 6 0 8 -4 5 -10 -3 -5 -2
-10 2 -10 5 0 17 -17 28 -37 10 -21 20 -39 21 -41 1 -2 24 9 50 24 27 15 58
32 69 38 11 6 22 13 25 16 3 3 30 18 60 34 30 16 62 35 71 42 8 8 23 14 32 14
9 0 17 4 17 8 0 10 50 37 63 34 4 -1 7 2 7 8 0 5 7 10 15 10 8 0 15 5 15 10 0
6 5 10 10 10 6 0 74 36 151 80 76 44 144 80 149 80 6 0 10 4 10 8 0 9 40 30
51 28 4 0 15 6 25 15 11 9 29 20 42 23 12 4 22 12 22 17 0 5 4 9 9 9 5 0 44
20 87 45 44 25 82 45 85 45 4 0 6 -552 7 -1227 0 -1132 -2 -1229 -17 -1243
-16 -15 -42 -30 -111 -67 -19 -10 -37 -21 -40 -24 -3 -3 -36 -22 -75 -44 -38
-21 -82 -46 -96 -56 -14 -10 -29 -16 -33 -12 -3 3 -6 1 -6 -5 0 -7 -5 -12 -11
-12 -6 0 -23 -9 -39 -20 -15 -11 -30 -17 -34 -13 -3 3 -6 2 -6 -3 0 -5 -26
-23 -57 -39 -32 -17 -63 -35 -70 -42 -7 -6 -31 -19 -53 -29 -22 -10 -40 -21
-40 -26 0 -4 -9 -8 -19 -8 -11 0 -21 -4 -23 -8 -3 -9 -31 -26 -158 -95 -30
-17 -58 -35 -62 -41 -4 -6 -8 -7 -8 -3 0 5 -7 1 -16 -7 -8 -9 -21 -16 -28 -16
-8 0 -19 -7 -26 -15 -7 -8 -16 -12 -21 -10 -4 3 -12 -3 -18 -12 -6 -10 -11
-14 -11 -9 0 5 -9 1 -20 -9 -11 -10 -20 -15 -20 -11 0 4 -7 0 -16 -8 -8 -9
-22 -16 -30 -16 -8 0 -14 -4 -14 -9 0 -5 -8 -11 -17 -14 -19 -6 -121 -63 -139
-78 -6 -5 -14 -6 -17 -2 -4 3 -7 2 -7 -4 0 -5 -24 -22 -52 -37 -59 -30 -90
-48 -98 -56 -3 -3 -23 -14 -45 -25 -22 -11 -46 -26 -53 -32 -7 -7 -18 -13 -24
-13 -6 0 -19 -6 -27 -14 -9 -7 -44 -28 -78 -46 -35 -18 -63 -36 -63 -41 0 -5
-3 -9 -7 -8 -14 2 -53 -13 -53 -20 0 -4 -16 -13 -35 -21 -19 -8 -35 -17 -35
-22 0 -4 -6 -8 -14 -8 -8 0 -21 -6 -28 -13 -7 -7 -29 -21 -48 -30 -19 -10 -57
-31 -85 -47 -27 -16 -52 -29 -55 -30 -3 0 -5 241 -5 536 0 294 -2 539 -5 542
-3 4 -62 8 -132 8 l-128 0 -1 -26 c0 -14 -2 -37 -3 -52 -1 -16 2 -28 7 -28 5
0 4 -7 -3 -15 -10 -12 -10 -15 1 -15 9 0 10 -3 4 -8 -12 -8 -14 -242 -2 -242
5 0 5 -5 1 -11 -10 -17 -10 -189 0 -189 5 0 3 -7 -4 -15 -10 -12 -10 -15 1
-15 9 0 10 -3 4 -8 -12 -8 -14 -242 -2 -242 5 0 5 -5 1 -12 -4 -6 -7 -55 -7
-110 0 -54 -3 -98 -6 -98 -4 0 -23 11 -43 25 -20 14 -41 25 -47 25 -5 0 -16 6
-23 13 -7 7 -24 18 -38 25 -14 7 -43 23 -65 37 -22 14 -51 30 -64 35 -13 6
-36 19 -51 30 -15 11 -30 17 -34 13 -3 -3 -6 -2 -6 4 0 5 -20 20 -45 32 -25
12 -45 27 -45 33 0 6 -3 8 -7 5 -3 -4 -12 -2 -20 4 -7 6 -13 8 -13 3 0 -5 -4
-4 -8 1 -9 15 -105 70 -114 67 -5 -1 -8 3 -8 8 0 6 -6 10 -13 10 -7 0 -22 8
-33 18 -11 10 -26 16 -33 14 -8 -3 -11 -1 -8 4 3 5 -19 21 -49 34 -30 14 -54
28 -54 32 0 3 -12 11 -27 17 -16 6 -44 21 -63 32 -19 12 -60 35 -90 52 -30 17
-58 34 -61 40 -3 5 -10 9 -15 9 -15 1 -54 21 -54 28 0 3 -16 12 -35 19 -19 7
-35 17 -35 22 0 5 -9 9 -20 9 -11 0 -20 5 -20 10 0 6 -7 10 -15 10 -8 0 -15 5
-15 11 0 5 -4 8 -9 4 -5 -3 -12 -1 -16 4 -3 5 -18 16 -33 24 -48 24 -77 42
-84 52 -4 6 -8 6 -8 1 0 -5 -7 -3 -15 4 -21 17 -76 49 -97 56 -10 4 -18 10
-18 15 0 5 -5 9 -11 9 -6 0 -54 26 -107 57 -54 32 -113 66 -132 75 -67 34
-145 81 -152 92 -4 6 -8 7 -8 2 0 -5 -6 -4 -13 2 -6 5 -28 19 -48 30 -72 40
-84 47 -89 52 -3 3 -14 10 -25 16 -20 11 -20 22 -21 1240 0 676 1 1232 3 1236
4 8 48 -14 139 -70 28 -18 54 -32 58 -32 4 0 30 -15 59 -33 29 -18 59 -36 67
-40 15 -7 35 -19 81 -49 14 -10 29 -15 33 -11 3 3 6 2 6 -4 0 -5 18 -18 40
-28 22 -10 40 -21 40 -25 0 -7 30 -18 47 -18 3 0 9 -4 12 -9 7 -11 83 -58 93
-58 4 0 13 -6 19 -12 7 -7 19 -13 26 -13 7 0 13 -4 13 -8 0 -5 16 -14 35 -22
19 -8 35 -16 35 -19 0 -3 18 -15 40 -25 22 -11 40 -23 40 -28 0 -5 4 -7 9 -3
5 3 15 0 23 -7 7 -7 29 -22 48 -32 19 -10 49 -27 67 -38 l31 -19 65 108 64
108 -21 20 c-12 12 -36 27 -53 34 -18 7 -33 17 -33 22 0 5 -6 9 -12 9 -7 1
-38 16 -68 35 -30 18 -79 46 -107 61 -29 16 -53 32 -53 37 0 4 -4 6 -9 2 -5
-3 -12 -1 -15 4 -4 5 -31 22 -61 37 -30 16 -55 31 -55 35 0 7 -39 22 -52 20
-5 -1 -8 3 -8 7 0 5 -18 17 -40 28 -22 10 -40 22 -40 27 0 4 -4 7 -9 7 -14 0
-185 100 -193 113 -4 7 -8 9 -8 4 0 -4 -18 4 -40 18 -22 14 -44 25 -50 25 -5
0 -10 4 -10 8 0 4 -12 13 -27 20 -51 23 -78 41 -78 54 0 12 115 82 115 70 0
-4 4 -2 8 4 8 13 101 68 145 87 15 6 27 14 27 17 0 4 23 17 50 30 28 13 50 27
50 32 0 4 7 8 15 8 8 0 15 5 15 11 0 5 4 8 9 4 5 -3 17 2 25 11 9 8 16 13 16
9 0 -3 20 8 44 25 25 16 47 30 50 30 4 0 35 17 69 38 35 21 70 41 77 45 8 4
33 18 55 30 22 13 56 32 75 42 19 11 37 23 40 26 3 3 19 12 35 21 63 32 100
53 106 61 3 5 13 9 22 11 9 1 24 9 34 18 10 8 39 26 66 38 26 13 47 28 47 33
0 6 3 7 7 4 3 -4 13 -1 22 7 9 8 18 14 21 14 3 -1 23 10 45 24 22 13 47 28 55
32 26 12 57 31 74 45 9 7 16 10 16 6 0 -5 8 -1 18 7 24 21 116 73 124 71 3 -2
12 4 18 12 7 8 18 15 25 15 6 0 20 9 30 20 10 11 20 18 23 15 3 -2 17 4 32 15
15 11 39 24 54 30 14 5 26 13 26 18 0 5 6 9 13 9 6 0 59 28 117 63 58 34 122
72 144 84 21 11 48 27 60 33 27 16 21 17 70 -9z"/>
<path d="M2319 4123 c-22 -5 -13 -50 12 -56 10 -3 19 -2 19 2 0 3 23 4 52 1
l52 -5 -1 -205 -1 -206 26 -2 c14 -1 28 2 31 7 3 5 5 97 5 203 -1 180 0 196
17 207 11 6 19 8 19 4 0 -5 24 -6 53 -5 51 3 54 5 53 30 -1 24 -4 26 -59 27
-32 0 -61 -3 -63 -7 -3 -5 -10 -5 -17 -1 -18 11 -137 10 -137 -1 0 -7 -3 -8
-8 -1 -7 11 -27 13 -53 8z"/>
<path d="M2830 4114 c-31 -13 -98 -64 -85 -64 4 0 -1 -7 -9 -16 -9 -8 -14 -20
-11 -25 4 -5 1 -9 -5 -9 -6 0 -9 -4 -5 -9 3 -5 1 -12 -4 -15 -5 -3 -8 -43 -7
-89 2 -104 28 -164 91 -205 59 -39 162 -44 221 -12 43 24 84 66 84 87 0 7 4
13 9 13 11 0 12 5 16 115 2 67 -1 88 -21 132 -24 51 -68 93 -98 93 -9 0 -16 5
-16 10 0 15 -121 10 -160 -6z m138 -43 c1 -1 3 0 5 2 7 6 59 -53 75 -87 14
-28 18 -55 16 -105 -4 -84 -6 -91 -16 -91 -4 0 -8 -6 -8 -13 0 -7 -14 -26 -31
-43 -27 -26 -37 -29 -93 -29 -43 0 -70 6 -90 18 -63 41 -88 177 -49 267 15 35
61 82 73 75 6 -3 10 -2 10 4 0 7 89 9 108 2z"/>
<path d="M3248 4122 c-21 -4 -23 -13 -5 -31 6 -8 7 -11 1 -8 -8 4 -11 -56 -10
-208 0 -118 3 -215 6 -216 3 0 13 -2 22 -4 27 -5 32 13 30 97 -1 43 2 79 6 79
4 1 28 3 54 4 26 1 51 4 55 8 3 4 12 7 20 7 24 0 82 44 94 72 16 39 17 86 3
114 -7 13 -11 24 -8 24 2 0 -4 8 -13 18 -10 11 -21 17 -25 15 -5 -2 -8 1 -8 8
0 7 -3 10 -6 6 -4 -3 -22 0 -41 8 -21 9 -31 10 -27 3 5 -7 3 -8 -6 -3 -14 9
-111 13 -142 7z m175 -64 c12 -6 27 -17 34 -24 14 -14 24 -84 12 -84 -5 0 -9
-7 -9 -15 0 -20 -51 -44 -97 -46 -73 -3 -69 -8 -67 89 0 48 2 88 3 90 4 8 106
0 124 -10z"/>
<path d="M2223 3415 c-1 -50 1 -55 21 -56 11 0 98 -1 193 -1 l171 -1 -66 -76
c-36 -42 -69 -77 -74 -79 -4 -2 -8 -8 -8 -13 0 -6 -10 -20 -22 -33 -81 -82
-86 -94 -66 -138 11 -24 19 -26 88 -30 75 -5 124 -22 163 -59 12 -10 17 -19
12 -19 -5 0 -1 -6 10 -13 10 -8 15 -19 11 -25 -3 -6 -2 -13 3 -16 13 -8 2 -76
-17 -113 -19 -34 -75 -73 -112 -78 -3 0 -9 -3 -15 -6 -21 -11 -131 5 -152 23
-7 6 -13 7 -13 3 0 -8 -70 42 -81 57 -9 14 -32 -1 -62 -39 l-27 -37 27 -28
c15 -15 32 -28 39 -28 7 0 17 -8 23 -17 5 -10 11 -16 13 -14 2 2 21 -4 43 -14
22 -9 50 -17 63 -17 12 0 22 -3 22 -7 0 -11 113 -5 170 9 30 8 59 13 63 12 5
-1 6 2 3 7 -4 5 2 12 11 15 24 8 83 61 83 75 0 6 4 11 8 11 14 0 45 82 46 122
1 21 5 38 9 38 5 0 5 5 2 10 -4 6 -8 23 -10 39 -2 16 -10 44 -18 62 -16 38
-82 111 -91 101 -3 -3 -6 1 -6 8 0 7 -3 10 -7 7 -3 -4 -15 0 -25 10 -10 9 -18
13 -18 8 0 -4 -6 -2 -14 4 -8 7 -30 13 -49 14 -39 2 -38 10 5 58 58 66 155
175 180 202 24 27 39 79 30 106 -3 8 -87 11 -281 11 l-277 0 -1 -55z"/>
<path d="M2883 3457 c-11 -19 -9 -916 2 -920 14 -5 363 1 401 6 17 2 55 13 85
23 30 10 57 18 61 19 3 0 18 10 32 22 14 13 26 20 26 16 0 -6 59 55 92 95 9
11 14 23 11 26 -4 3 -1 6 6 6 7 0 9 5 6 10 -3 6 -2 10 4 10 9 0 27 56 23 73
-1 4 2 7 6 7 5 0 9 6 9 13 1 17 12 134 14 144 1 4 0 10 -1 13 -1 3 -3 32 -5
64 -2 34 -9 63 -17 67 -7 5 -10 9 -6 9 13 0 -14 64 -50 121 -20 31 -51 67 -71
80 -19 13 -40 30 -47 36 -7 7 -47 25 -91 39 -73 25 -91 27 -281 29 -139 2
-204 -1 -209 -8z m387 -112 c19 -5 37 -9 40 -10 18 -3 70 -31 70 -38 0 -5 5
-5 10 -2 6 3 13 -1 16 -9 3 -9 13 -16 21 -16 8 0 11 -4 8 -10 -3 -5 -3 -10 2
-10 22 0 72 -105 79 -162 1 -10 3 -19 4 -20 7 -8 5 -106 -3 -122 -6 -13 -6
-16 2 -12 6 4 -1 -25 -15 -64 -23 -65 -47 -104 -82 -134 -7 -6 -22 -20 -32
-30 -11 -11 -20 -16 -20 -11 0 4 -9 0 -20 -10 -11 -10 -20 -16 -20 -12 0 3
-23 -1 -52 -9 -29 -7 -98 -13 -158 -13 l-106 1 0 347 c0 190 3 348 7 351 12 8
210 4 249 -5z"/>
<path d="M2230 2294 c-8 -2 -32 -5 -53 -9 -20 -3 -52 -19 -70 -35 -28 -24 -32
-34 -31 -72 1 -23 3 -44 4 -45 3 -3 7 -19 9 -33 0 -5 5 -10 10 -10 6 0 22 -11
37 -25 14 -13 29 -24 33 -23 3 1 23 -6 45 -15 21 -9 42 -17 47 -17 5 0 9 -5 9
-11 0 -5 4 -8 9 -5 12 8 30 -37 27 -68 -7 -63 -87 -82 -208 -51 -25 6 -28 5
-28 -19 0 -14 3 -26 8 -27 4 0 16 -3 27 -6 11 -3 47 -7 79 -8 100 -5 169 38
171 105 1 14 4 31 8 37 9 14 -32 72 -63 89 -14 7 -51 25 -84 39 -64 28 -79 41
-84 69 -4 24 7 70 15 62 3 -3 11 2 18 11 10 13 73 23 88 13 3 -2 25 -8 60 -15
15 -3 27 -2 28 2 0 5 2 16 4 26 3 15 -6 22 -27 18 -5 0 -8 3 -8 8 0 4 -10 7
-22 7 -13 -1 -27 1 -33 4 -5 4 -17 5 -25 4z"/>
<path d="M3107 2294 c-1 -2 -18 -6 -37 -9 -19 -3 -37 -10 -38 -16 -2 -5 -8 -7
-12 -4 -5 3 -15 -4 -23 -15 -7 -11 -16 -17 -19 -14 -4 3 -9 -4 -13 -15 -3 -12
-10 -21 -14 -21 -10 0 -33 -97 -34 -141 0 -19 3 -50 7 -69 4 -19 8 -41 8 -47
1 -7 4 -13 7 -13 3 0 12 -13 19 -28 14 -33 65 -73 101 -80 44 -8 151 -9 151
-1 0 4 9 11 21 14 45 15 92 71 106 128 10 40 10 141 1 172 -18 55 -42 94 -73
117 -16 13 -33 23 -37 24 -5 1 -9 2 -10 4 -9 6 -106 19 -111 14z m79 -58 c54
-12 101 -82 100 -146 -1 -14 4 -28 9 -32 7 -5 6 -8 -1 -8 -5 0 -9 -12 -9 -27
3 -42 -12 -85 -40 -117 -14 -16 -25 -25 -25 -20 0 5 -5 2 -10 -6 -10 -17 -140
-24 -140 -8 0 5 -4 7 -8 4 -12 -7 -49 28 -57 54 -3 11 -10 20 -15 20 -5 0 -7
9 -5 20 2 11 1 22 -3 24 -4 2 -7 31 -6 63 2 68 34 149 64 158 11 3 20 10 20
14 0 4 14 8 32 9 18 2 34 4 36 6 4 4 11 3 58 -8z"/>
<path d="M2467 2281 c-2 -3 -3 -109 -3 -236 l1 -229 25 0 c14 0 24 5 23 11 -1
6 2 25 7 42 5 19 5 31 -1 31 -6 0 -6 7 1 19 5 11 6 22 2 25 -10 6 -9 36 2 54
4 7 2 12 -5 12 -10 0 -10 3 -1 13 13 12 241 19 243 7 1 -3 2 -50 4 -105 1 -55
3 -102 4 -105 0 -3 12 -5 25 -5 l23 0 0 196 c0 108 3 202 7 208 4 6 3 11 -3
11 -5 0 -9 12 -8 27 2 23 -2 27 -23 28 -25 0 -25 -1 -27 -92 0 -51 -2 -96 -2
-101 -1 -9 -223 -8 -238 1 -11 7 -11 36 1 56 5 7 5 16 0 20 -13 9 -14 41 -2
41 7 0 7 5 1 13 -11 14 -11 27 0 45 5 6 5 13 0 13 -33 5 -54 5 -56 0z"/>
<path d="M3466 2282 c-2 -4 -2 -20 -1 -37 1 -16 -3 -36 -8 -42 -5 -7 -6 -13
-1 -13 11 0 11 -211 0 -228 -4 -7 -3 -12 1 -12 5 0 8 -26 7 -58 -3 -74 3 -84
41 -73 17 5 25 10 20 10 -13 1 -14 61 -2 61 5 0 5 6 0 13 -11 18 -11 57 0 57
5 0 4 6 -2 14 -10 12 -8 17 10 26 17 10 20 9 14 -1 -6 -8 -4 -10 4 -5 7 5 30
9 51 11 51 4 81 14 103 33 9 8 17 11 17 6 1 -5 9 9 20 31 10 22 16 43 14 47
-2 3 0 9 5 13 7 4 7 15 1 30 -5 14 -7 25 -4 25 3 0 -3 13 -12 29 -16 27 -47
48 -84 58 -28 8 -190 12 -194 5z m106 -47 c10 -1 18 1 18 5 0 4 20 1 45 -8 51
-16 76 -53 68 -99 -7 -35 -40 -73 -65 -73 -10 0 -18 -6 -18 -12 0 -9 -4 -8
-10 2 -5 8 -10 10 -10 5 0 -16 -78 -5 -84 11 -3 8 0 14 7 14 7 0 8 3 2 8 -5 4
-10 21 -10 37 0 17 5 33 10 37 6 5 6 8 -1 8 -14 0 -13 51 1 66 6 7 14 9 20 6
5 -3 18 -7 27 -7z"/>
</g>
</svg>
